<svg width="121" height="25" viewBox="0 0 121 25" fill="none" xmlns="http://www.w3.org/2000/svg">
<path d="M21.5186 7.97375L19.8164 8.01063L13.5278 11.7918L6.80576 7.97375L5.18014 7.99474C5.0222 8.06722 4.88935 8.18497 4.79843 8.33307C4.70751 8.48116 4.66263 8.65292 4.66948 8.82656L4.67742 16.5433C4.69125 16.7109 4.7556 16.8704 4.86197 17.0007C4.96834 17.1309 5.11173 17.2259 5.27319 17.273L6.43014 17.2571C6.57768 17.1983 6.70635 17.1003 6.80225 16.9737C6.89816 16.8471 6.95764 16.6967 6.97428 16.5387V10.7291L13.4308 14.4569C13.5161 14.4853 13.6082 14.4853 13.6935 14.4569L19.7993 10.754L19.8124 16.5359C19.8261 16.7073 19.8926 16.8703 20.0027 17.0024C20.1129 17.1345 20.2613 17.2292 20.4275 17.2735L21.5322 17.261C21.6833 17.2095 21.8165 17.1159 21.9163 16.9913C22.0161 16.8666 22.0783 16.7162 22.0956 16.5575V8.67846C22.0781 8.5177 22.0142 8.3655 21.9118 8.24039C21.8093 8.11527 21.6727 8.02263 21.5186 7.97375Z" fill="white"/>
<path d="M55.0829 12.5816L59.9785 8.42824C60.2054 8.23419 60.1118 7.97432 59.8111 7.97432L57.4927 8.03106L53.1015 11.4769H44.6795L44.6619 8.68811C44.6483 8.52779 44.588 8.37496 44.4886 8.24844C44.3892 8.12192 44.255 8.02723 44.1025 7.97602L42.8485 7.99985C42.7154 8.06464 42.6013 8.16284 42.5175 8.28486C42.4337 8.40688 42.3829 8.54856 42.3702 8.69606L42.3991 16.5455C42.4135 16.7131 42.4784 16.8724 42.5851 17.0024C42.6919 17.1323 42.8355 17.2269 42.9971 17.2735L44.1564 17.2576C44.2992 17.2029 44.424 17.1096 44.5171 16.9883C44.6101 16.8669 44.6677 16.7221 44.6835 16.5699V13.7743H53.1123L57.6776 17.2741H59.8491C60.1481 17.2741 60.2463 17.0159 60.0193 16.8202L55.0829 12.5816Z" fill="white"/>
<path d="M40.3916 7.97375L38.7161 8.00098L25.7361 14.5057L25.7219 8.73975C25.7081 8.55092 25.6304 8.37242 25.5018 8.23354C25.3731 8.09465 25.201 8.00364 25.0138 7.97545H24.2535C24.0444 7.97818 23.844 8.05927 23.6918 8.20269C23.5397 8.34612 23.4469 8.54142 23.4319 8.74996L23.4529 16.5189C23.4669 16.7004 23.5398 16.8725 23.6605 17.0088C23.7813 17.1451 23.9433 17.2383 24.1218 17.2741L25.6073 17.2463L38.6951 10.6247V16.5563C38.7143 16.7251 38.7842 16.8841 38.8957 17.0124C39.0071 17.1406 39.1548 17.232 39.3192 17.2747L40.4013 17.2639C40.5634 17.2109 40.7065 17.1118 40.813 16.9786C40.9196 16.8455 40.9849 16.6841 41.001 16.5143L40.9812 8.7023C40.9677 8.53561 40.9042 8.37687 40.799 8.24687C40.6938 8.11687 40.5518 8.02167 40.3916 7.97375Z" fill="white"/>
<path d="M61.4917 16.5257C61.5058 16.7023 61.5757 16.8699 61.6913 17.0042C61.8068 17.1385 61.9621 17.2326 62.1346 17.273L63.1622 17.265C63.3324 17.2178 63.4843 17.12 63.5977 16.9845C63.7111 16.849 63.7806 16.6823 63.7971 16.5064V14.4847L76.6414 14.4915C78.2302 14.4915 79.0597 13.6404 79.0597 12.0381V10.2905C79.0597 9.00416 78.4764 8.19106 77.2537 7.97488L61.9689 7.99815C61.8346 8.06242 61.7193 8.16058 61.6344 8.28296C61.5496 8.40533 61.498 8.54771 61.4849 8.69606L61.4917 16.5257ZM63.7971 10.215H76.3158C76.6318 10.215 76.7441 10.3285 76.7402 10.6451V11.7311C76.7328 12.0806 76.608 12.1794 76.3373 12.1794H63.7914L63.7971 10.215Z" fill="white"/>
<path d="M120.155 3.96106L61.477 0L1.8472 3.96106C1.62125 3.98819 1.41208 4.09407 1.25643 4.26009C1.10079 4.42612 1.00861 4.64167 0.996094 4.8689V20.0856C1.00807 20.3136 1.1005 20.5299 1.25697 20.6961C1.41343 20.8623 1.62378 20.9677 1.85061 20.9934L61.7164 24.6084L120.145 20.9934C120.371 20.9669 120.581 20.8613 120.737 20.6951C120.892 20.529 120.984 20.313 120.996 20.0856V4.86777C120.984 4.64228 120.893 4.42822 120.739 4.26263C120.586 4.09705 120.379 3.99037 120.155 3.96106ZM119.184 19.2305L61.6625 22.7887L2.81576 19.2288V5.71888L61.5377 1.81967L119.183 5.71774V19.2305H119.184Z" fill="white"/>
<path d="M82.2429 17.2735H96.1188C97.3744 17.1203 98.006 16.3089 98.006 14.967V10.371C98.006 9.03366 97.417 8.18993 96.1704 7.97772L82.1782 7.98112C81.0071 8.18766 80.4351 9.0155 80.4351 10.32V14.9245C80.4351 16.2352 81.0156 17.0636 82.2429 17.2735ZM82.7411 10.6547C82.7411 10.3393 82.8545 10.2178 83.195 10.2178H95.2506C95.5701 10.2178 95.7046 10.3393 95.7046 10.7047V14.584C95.7046 14.912 95.586 15.0289 95.2665 15.0289H83.1927C82.8659 15.0289 82.7388 14.9074 82.7388 14.563V10.6547H82.7411Z" fill="white"/>
<path d="M99.9987 17.2735L101.109 17.2605C101.253 17.2112 101.381 17.1232 101.479 17.006C101.577 16.8888 101.64 16.7469 101.662 16.596V13.7692H114.652L114.666 16.5155C114.679 16.6993 114.754 16.8734 114.877 17.0106C115 17.1477 115.165 17.2402 115.346 17.2735L116.261 17.2707C116.433 17.2414 116.592 17.1584 116.714 17.0334C116.836 16.9085 116.916 16.748 116.941 16.575L116.924 8.69606C116.911 8.53183 116.848 8.37544 116.745 8.24687C116.642 8.1183 116.503 8.02341 116.346 7.97432L115.141 7.99417C115.014 8.04924 114.903 8.13517 114.817 8.24417C114.732 8.35317 114.675 8.48178 114.652 8.61832V11.4763H101.662V8.69606C101.648 8.53089 101.585 8.37377 101.48 8.245C101.376 8.11623 101.235 8.02174 101.077 7.97375L99.8801 7.99304C99.7505 8.04815 99.637 8.13526 99.5503 8.24622C99.4635 8.35717 99.4064 8.48833 99.3842 8.6274V16.5359C99.3979 16.7073 99.4643 16.8702 99.5744 17.0022C99.6844 17.1343 99.8326 17.2291 99.9987 17.2735Z" fill="white"/>
</svg>
