<svg width="163" height="97" viewBox="0 0 163 97" fill="none" xmlns="http://www.w3.org/2000/svg">
<path d="M77.4376 39.6816H71.5001V69.2676H77.4376V39.6816Z" fill="#FFCF20"/>
<path d="M84.4694 33.5742H78.5346V69.2678H84.4694V33.5742Z" fill="#FFCF20"/>
<path d="M91.497 39.6816H85.5662V69.2676H91.497V39.6816Z" fill="#FFCF20"/>
<path fill-rule="evenodd" clip-rule="evenodd" d="M63.3664 40.8436L57.4341 35.5693V20.4004H63.3664V40.8436Z" fill="#211F20"/>
<path fill-rule="evenodd" clip-rule="evenodd" d="M70.4021 47.4401L64.4673 41.6151V13.6943H70.4021V47.4401Z" fill="#211F20"/>
<path d="M77.4376 7.10059H71.5001V38.7529H77.4376V7.10059Z" fill="#211F20"/>
<path d="M84.4694 0.5H78.5346V32.2704H84.4694V0.5Z" fill="#211F20"/>
<path fill-rule="evenodd" clip-rule="evenodd" d="M99.6339 40.8436L105.566 35.5693V20.4004H99.6339V40.8436Z" fill="#211F20"/>
<path fill-rule="evenodd" clip-rule="evenodd" d="M92.5956 47.4401L98.5356 41.6151V13.6943H92.5956V47.4401Z" fill="#211F20"/>
<path d="M91.497 7.10059H85.5662V38.7529H91.497V7.10059Z" fill="#211F20"/>
<path fill-rule="evenodd" clip-rule="evenodd" d="M16.3384 82.4193C15.5902 81.6674 14.2031 81.2947 12.1671 81.2947H0.14991V96.4999H4.68837V91.258H12.1671C14.2031 91.258 15.5902 90.8868 16.3384 90.1322C17.0846 89.3776 17.4601 88.2926 17.4601 86.8803V85.672C17.4601 84.2573 17.0846 83.1747 16.3384 82.4193ZM162.85 92.1247V90.9152C162.85 89.5029 162.477 88.4163 161.731 87.6621C160.978 86.9114 159.591 86.5403 157.556 86.5403H150.08L150.077 81.2947H145.543V96.4995H157.556C159.591 96.4995 160.978 96.1272 161.731 95.3738C162.477 94.6208 162.85 93.5358 162.85 92.1247ZM64.6533 96.4991H60.1188L60.0901 92.1243V85.6728L60.1188 81.2943H64.6533V87.1114H72.8355V81.2943H77.4203V96.4991H72.8355V90.5736H64.6533V96.4991ZM36.3251 95.3706C35.5785 96.1264 34.189 96.4987 32.1546 96.4987H25.4832C23.4687 96.4987 22.0708 96.142 21.2927 95.4109C20.5065 94.6894 20.1123 93.5896 20.1123 92.1255V85.6724C20.1123 84.2015 20.5065 83.1124 21.2927 82.3818C22.0708 81.6571 23.4687 81.2935 25.4832 81.2935H32.1546C34.189 81.2935 35.5785 81.6674 36.3251 82.4193C37.0785 83.1751 37.4433 84.2577 37.4433 85.6724V92.1255C37.4433 93.5425 37.0785 94.6212 36.3251 95.3706ZM132.461 84.7557H126.206V81.2947H143.514V84.7557H136.997V96.4987H132.461V84.7557ZM56.3082 95.3706C55.562 96.1264 54.1745 96.4987 52.1465 96.4987H45.4747C43.4594 96.4987 42.0615 96.142 41.2774 95.4109C40.49 94.6894 40.1042 93.5896 40.1042 92.1255V85.6724C40.1042 84.2015 40.49 83.1124 41.2774 82.3818C42.0615 81.6571 43.4594 81.2935 45.4747 81.2935H52.1465C54.1745 81.2935 55.562 81.6674 56.3082 82.4193C57.06 83.1751 57.4304 84.2577 57.4304 85.6724V87.1684H52.8747C52.8747 86.3328 52.6984 85.7143 52.3532 85.3328C52.004 84.9493 51.2338 84.7557 50.0307 84.7557H47.4787C46.3697 84.7557 45.6259 84.9704 45.2496 85.3851C44.8769 85.8009 44.6897 86.3983 44.6897 87.1684V90.6294C44.6897 91.4032 44.8769 91.9918 45.2496 92.414C45.6259 92.8338 46.3697 93.0473 47.4787 93.0473H50.0307C51.2338 93.0473 52.004 92.8482 52.3532 92.4687C52.6984 92.0808 52.8747 91.4691 52.8747 90.6294H57.4304V92.1255C57.4304 93.5425 57.06 94.6212 56.3082 95.3706ZM97.4098 90.5732H84.6432C84.6587 91.3789 84.8539 91.9918 85.2262 92.4144C85.6053 92.8338 86.3415 93.0473 87.4581 93.0473H97.4098V96.4987H85.4513C83.4348 96.4987 82.0322 96.142 81.2512 95.4149C80.4722 94.6894 80.08 93.5896 80.08 92.1255V85.6724C80.08 84.2019 80.4722 83.1124 81.2512 82.3818C82.0322 81.6575 83.4348 81.2939 85.4513 81.2939H97.4098V84.7557H87.4581C86.3415 84.7557 85.6053 84.9704 85.2262 85.3851C84.8539 85.8009 84.6587 86.3747 84.6432 87.1122H97.4098V90.5732ZM122.19 84.0203H115.146V81.2393H110.651V84.0203H103.437C103.437 84.0203 99.3392 84.1444 99.3392 88.7914C99.3392 93.4412 103.551 93.4735 103.551 93.4735H110.651V96.4864H115.146V93.4735H122.075C122.075 93.4735 126.29 93.4412 126.29 88.7914C126.29 84.1444 122.19 84.0203 122.19 84.0203ZM32.8852 87.1684C32.8852 86.3328 32.7113 85.7143 32.3673 85.3328C32.0185 84.9493 31.2483 84.7557 30.0452 84.7557H27.4928C26.3802 84.7557 25.6364 84.9704 25.2637 85.3851C24.891 85.8009 24.7054 86.3983 24.7054 87.1684V90.6294C24.7054 91.4032 24.891 91.9918 25.2637 92.414C25.6364 92.8338 26.3802 93.0473 27.4928 93.0473H30.0452C31.2483 93.0473 32.0065 92.8482 32.3425 92.4687C32.6698 92.0808 32.8513 91.4818 32.8852 90.657V87.1684ZM158.321 91.5169C158.321 92.3589 157.637 93.0409 156.798 93.0409H150.08V89.9969H156.798C157.637 89.9969 158.321 90.6781 158.321 91.5169ZM119.778 90.4483H115.146V87.2319H119.741C119.741 87.2319 121.322 87.0264 121.322 88.9223C121.322 90.5081 119.778 90.4483 119.778 90.4483ZM104.445 88.9223C104.445 87.0264 106.029 87.2319 106.029 87.2319H110.632V90.4483H105.999C105.999 90.4483 104.445 90.5081 104.445 88.9223ZM11.4061 87.7981H4.68837V84.7557H11.4061C12.2481 84.7557 12.9285 85.4381 12.9285 86.2789C12.9285 87.1185 12.2481 87.7981 11.4061 87.7981Z" fill="#211F20"/>
</svg>
