<svg width="64" height="64" viewBox="0 0 64 64" fill="none" xmlns="http://www.w3.org/2000/svg">
<path d="M63.1413 40.4274C62.6698 40.4274 62.2994 40.7979 62.2994 41.2693V61.4745C62.2994 61.946 61.929 62.3164 61.4575 62.3164H2.52565C2.0542 62.3164 1.68377 61.946 1.68377 61.4745V41.2693C1.68377 40.7979 1.31334 40.4274 0.841884 40.4274C0.370429 40.4274 0 40.7979 0 41.2693V61.4745C0 62.8721 1.12812 64.0002 2.52565 64.0002H61.4575C62.855 64.0002 63.9832 62.8721 63.9832 61.4745V41.2693C63.9832 40.7979 63.6127 40.4274 63.1413 40.4274Z" fill="#C0111C"/>
<path d="M42.9361 18.5385C43.4075 18.5385 43.778 18.168 43.778 17.6966V12.6453C43.778 11.2478 42.6498 10.1196 41.2523 10.1196H22.7309C21.3333 10.1196 20.2052 11.2478 20.2052 12.6453V17.6966C20.2052 18.168 20.5756 18.5385 21.0471 18.5385C21.5185 18.5385 21.889 18.168 21.889 17.6966V12.6453C21.889 12.1738 22.2594 11.8034 22.7309 11.8034H41.2523C41.7238 11.8034 42.0942 12.1738 42.0942 12.6453V17.6966C42.0942 18.168 42.4646 18.5385 42.9361 18.5385Z" fill="#C0111C"/>
<path d="M61.4575 21.906H2.52565C1.12812 21.906 0 23.0341 0 24.4317V32.7831C0 37.464 15.9284 43.7276 32.2105 43.7276C48.2736 43.7276 64 37.464 64 32.7831V24.4317C63.9832 23.0341 62.855 21.906 61.4575 21.906ZM62.2994 32.7831C62.2994 35.7466 48.0547 42.0439 32.1936 42.0439C16.1305 42.0439 1.68377 35.7466 1.68377 32.7831V24.4317C1.68377 23.9602 2.0542 23.5898 2.52565 23.5898H61.4575C61.929 23.5898 62.2994 23.9602 62.2994 24.4317V32.7831Z" fill="#C0111C"/>
<path d="M32.2105 48.8463C33.7932 48.8463 35.4433 48.7789 37.1102 48.6442C37.5817 48.6106 37.9184 48.2065 37.8848 47.735C37.8511 47.2635 37.4638 46.91 36.9755 46.9605C33.5912 47.2299 30.392 47.213 27.0076 46.9268C26.5699 46.8763 26.1321 47.2299 26.0984 47.7013C26.0647 48.1728 26.4015 48.5769 26.8729 48.6106C28.6746 48.7621 30.4762 48.8463 32.2105 48.8463Z" fill="#C0111C"/>
</svg>
