<svg width="64" height="64" viewBox="0 0 64 64" fill="none" xmlns="http://www.w3.org/2000/svg">
<path d="M32 0C14.12 0 5.58 10.1 5.22 10.52C5.08 10.7 5 10.92 5 11.16V31.26C5 48.26 20.66 58.36 27.38 61.92C27.86 62.18 28.48 62 28.74 61.5C29 61.02 28.82 60.4 28.32 60.14C20.36 55.96 7 46.62 7 31.26V11.54C8.4 10.02 16.26 2.34 31 2.02V63C31 63.56 31.44 64 32 64C32.3 64 32.56 63.86 32.76 63.66C36.02 62.26 59 51.64 59 31V11C59 10.76 58.92 10.54 58.76 10.36C58.48 10 51.34 1.62 36.48 0.12C35.94 0.08 35.44 0.46 35.38 1.02C35.32 1.56 35.72 2.06 36.28 2.12C48.86 3.38 55.7 10 57 11.38V31C57 48.9 38.28 58.9 33 61.36V1C33 0.44 32.56 0 32 0Z" fill="#C0111C"/>
</svg>
